<svg width="351" height="232" viewBox="0 0 351 232" fill="none" xmlns="http://www.w3.org/2000/svg">
<path d="M34.081 82.272C33.3983 82.272 32.8437 82.144 32.417 81.888C31.9903 81.7173 31.8197 81.2907 31.905 80.608C31.905 80.352 32.033 79.968 32.289 79.456C32.545 78.944 32.7157 78.56 32.801 78.304C33.2277 77.1093 33.6117 75.9147 33.953 74.72C34.2943 73.44 34.6357 72.2453 34.977 71.136C36.1717 66.4427 37.281 61.792 38.305 57.184C39.329 52.4907 40.1397 47.7973 40.737 43.104C41.0783 40.3733 41.505 36.704 42.017 32.096C42.529 27.4027 42.785 22.88 42.785 18.528C42.785 16.8213 42.7423 15.2427 42.657 13.792C42.5717 12.256 42.3583 10.8907 42.017 9.696C39.201 9.696 36.385 9.696 33.569 9.696C30.753 9.61066 27.9797 9.56799 25.249 9.56799C23.969 9.56799 22.177 9.65333 19.873 9.824C17.6543 9.99466 15.3503 10.3787 12.961 10.976C10.657 11.5733 8.737 12.5547 7.201 13.92C5.665 15.2853 4.98233 17.12 5.153 19.424C5.23833 20.1067 5.49433 21.0453 5.921 22.24C6.34767 23.3493 6.64633 24.032 6.817 24.288L5.409 25.312C4.897 24.3733 4.257 23.3067 3.489 22.112C2.721 20.832 2.03833 19.5947 1.441 18.4C0.843667 17.2053 0.502333 16.3093 0.417 15.712C0.331667 14.8587 0.374333 13.7493 0.545 12.384C0.715667 11.0187 1.39833 9.824 2.593 8.8C3.873 7.69066 5.62233 6.96533 7.841 6.62399C10.145 6.28266 12.4917 6.112 14.881 6.112C17.185 6.112 19.4037 6.19733 21.537 6.368C23.6703 6.53866 25.4197 6.62399 26.785 6.62399C26.785 6.62399 27.7663 6.62399 29.729 6.62399C31.6917 6.62399 34.1663 6.62399 37.153 6.62399C40.225 6.53866 43.4677 6.49599 46.881 6.49599C50.2943 6.49599 53.409 6.49599 56.225 6.49599L53.537 9.824H44.577C45.857 12.2133 46.6677 15.5413 47.009 19.808C47.4357 24.0747 47.649 28.1707 47.649 32.096C47.649 33.7173 47.649 35.2533 47.649 36.704C47.649 38.1547 47.6063 39.4347 47.521 40.544C47.3503 44.5547 46.7957 49.376 45.857 55.008C44.9183 60.64 43.7237 65.9733 42.273 71.008C45.7717 66.0587 50.0383 60.1707 55.073 53.344C60.193 46.5173 66.0383 39.4347 72.609 32.096C79.265 24.672 86.6037 17.632 94.625 10.976C96.2463 9.61066 98.3797 8.07466 101.025 6.368C103.67 4.66133 106.486 3.21067 109.473 2.016C112.46 0.735995 115.276 0.095993 117.921 0.095993C120.396 0.095993 122.102 0.522662 123.041 1.376C124.065 2.22933 124.577 3.33866 124.577 4.70399C124.577 6.32533 124.065 8.11733 123.041 10.08C122.102 12.0427 121.377 13.664 120.865 14.944C120.78 15.2 120.396 15.3707 119.713 15.456C119.03 15.5413 118.732 15.4133 118.817 15.072C118.988 14.3893 119.158 13.5787 119.329 12.64C119.585 11.616 119.713 10.592 119.713 9.56799C119.713 8.20266 119.457 6.96533 118.945 5.856C118.433 4.74666 117.452 4.10666 116.001 3.936C115.745 3.85066 115.489 3.808 115.233 3.808C114.977 3.808 114.721 3.808 114.465 3.808C111.99 3.808 109.302 4.66133 106.401 6.368C103.585 7.98933 100.3 10.2933 96.545 13.28C89.377 18.9973 82.5503 25.312 76.065 32.224C69.665 39.0507 63.521 46.2187 57.633 53.728C54.561 57.568 51.5743 61.4507 48.673 65.376C45.7717 69.3013 43.0837 73.3973 40.609 77.664C40.4383 78.0053 40.2677 78.3893 40.097 78.816C40.0117 79.328 39.8837 79.712 39.713 79.968C39.5423 80.1387 39.0303 80.3947 38.177 80.736C37.3237 81.1627 36.4703 81.504 35.617 81.76C34.849 82.1013 34.337 82.272 34.081 82.272ZM98.476 27.104C97.2813 27.104 96.428 26.72 95.916 25.952C95.5747 25.5253 95.404 24.9707 95.404 24.288C95.404 22.9227 96.044 21.8133 97.324 20.96C98.2627 20.448 99.116 20.192 99.884 20.192C101.164 20.192 102.06 20.576 102.572 21.344C102.913 21.7707 103.084 22.3253 103.084 23.008C103.084 24.3733 102.401 25.4827 101.036 26.336C100.268 26.848 99.4147 27.104 98.476 27.104ZM76.204 76.384C75.3507 76.384 74.6253 76.2133 74.028 75.872C73.516 75.5307 73.26 74.8907 73.26 73.952C73.26 72.7573 73.5587 71.3493 74.156 69.728C74.8387 68.1067 75.564 66.4853 76.332 64.864C77.1853 63.2427 77.8253 61.92 78.252 60.896C78.8493 59.7013 79.5747 58.1653 80.428 56.288C81.3667 54.3253 82.22 52.4907 82.988 50.784C83.8413 48.992 84.4387 47.7547 84.78 47.072C83.5853 48.352 82.1347 49.9733 80.428 51.936C78.8067 53.8133 77.2707 55.648 75.82 57.44C74.3693 59.232 73.26 60.64 72.492 61.664C72.236 62.0053 72.0227 62.176 71.852 62.176C71.6813 62.176 71.596 61.9627 71.596 61.536C71.596 60.8533 71.8093 60.2133 72.236 59.616C73.8573 57.568 75.6493 55.264 77.612 52.704C79.66 50.144 81.4947 47.7973 83.116 45.664C84.7373 43.4453 85.7613 41.9947 86.188 41.312C87.1267 41.1413 88.492 40.8853 90.284 40.544C92.1613 40.2027 93.4413 39.7333 94.124 39.136C94.38 38.88 94.636 38.752 94.892 38.752C95.0627 38.752 95.148 38.9227 95.148 39.264C95.2333 39.52 95.148 39.8187 94.892 40.16C94.38 40.7573 93.484 42.208 92.204 44.512C90.924 46.816 89.5587 49.376 88.108 52.192C86.7427 54.9227 85.4627 57.3973 84.268 59.616C83.0733 61.92 82.0493 64.1387 81.196 66.272C80.3427 68.4053 79.916 69.9413 79.916 70.88C79.916 72.0747 80.5133 72.672 81.708 72.672C82.8173 72.672 84.2253 71.9893 85.932 70.624C87.724 69.2587 89.516 67.6373 91.308 65.76C93.1 63.7973 94.6787 62.0053 96.044 60.384C96.4707 59.872 96.9827 59.2747 97.58 58.592C98.2627 57.824 98.6893 57.3547 98.86 57.184C99.0307 57.3547 99.116 57.6533 99.116 58.08C99.0307 58.6773 98.8173 59.2747 98.476 59.872C98.1347 60.384 97.7933 60.8533 97.452 61.28C95.66 63.4987 93.6973 65.8027 91.564 68.192C89.4307 70.496 87.084 72.4587 84.524 74.08C81.964 75.616 79.1907 76.384 76.204 76.384ZM101.597 76.384C100.744 76.384 100.018 76.2133 99.421 75.872C98.8237 75.5307 98.525 74.8907 98.525 73.952C98.525 72.7573 98.8237 71.3493 99.421 69.728C100.104 68.1067 100.829 66.4853 101.597 64.864C102.365 63.2427 103.005 61.92 103.517 60.896C103.944 60.128 104.498 58.9333 105.181 57.312C105.949 55.6053 106.717 53.856 107.485 52.064C108.338 50.1867 109.021 48.608 109.533 47.328C110.13 46.048 110.429 45.408 110.429 45.408C109.661 46.2613 108.637 47.456 107.357 48.992C106.162 50.528 104.84 52.1493 103.389 53.856C102.024 55.4773 100.744 57.0133 99.549 58.464C98.4397 59.9147 97.629 60.9813 97.117 61.664C96.861 62.0053 96.6477 62.176 96.477 62.176C96.3063 62.176 96.221 61.9627 96.221 61.536C96.221 60.8533 96.4343 60.2133 96.861 59.616C97.885 58.336 99.1223 56.8 100.573 55.008C102.024 53.1307 103.474 51.2533 104.925 49.376C106.461 47.4987 107.784 45.8347 108.893 44.384C108.21 44.384 107.314 44.4267 106.205 44.512C105.181 44.5973 104.242 44.7253 103.389 44.896C102.536 44.9813 102.066 45.024 101.981 45.024C101.554 45.024 101.597 44.6827 102.109 44C102.621 43.3173 103.304 42.6347 104.157 41.952C105.01 41.2693 105.65 40.928 106.077 40.928C106.162 40.928 106.845 40.9707 108.125 41.056C109.405 41.056 110.344 41.056 110.941 41.056C112.648 38.752 114.312 36.1067 115.933 33.12C117.64 30.1333 119.304 26.848 120.925 23.264C121.608 23.1787 122.76 22.7093 124.381 21.856C126.088 20.9173 127.41 19.9787 128.349 19.04C128.776 18.6133 129.117 18.4 129.373 18.4C129.885 18.4 129.885 18.7413 129.373 19.424C128.776 20.1067 127.752 21.5573 126.301 23.776C124.85 25.9093 123.229 28.512 121.437 31.584C119.645 34.5707 117.938 37.728 116.317 41.056H126.685C127.624 41.056 128.093 41.184 128.093 41.44C128.093 41.7813 127.453 42.1227 126.173 42.464C124.722 42.8907 123.186 43.1467 121.565 43.232C120.029 43.3173 118.578 43.488 117.213 43.744C115.933 44 114.994 44.5547 114.397 45.408C113.885 46.0053 113.16 47.2853 112.221 49.248C111.282 51.2107 110.258 53.472 109.149 56.032C108.125 58.5067 107.229 61.024 106.461 63.584C105.693 66.0587 105.224 68.1493 105.053 69.856V70.368C105.053 71.0507 105.266 71.6053 105.693 72.032C106.12 72.4587 106.546 72.672 106.973 72.672C108.082 72.672 109.49 71.9893 111.197 70.624C112.989 69.2587 114.824 67.6373 116.701 65.76C118.578 63.7973 120.2 62.0053 121.565 60.384C122.162 59.7013 122.674 59.0613 123.101 58.464C123.613 57.8667 123.912 57.4827 123.997 57.312C124.168 57.6533 124.253 57.9093 124.253 58.08C124.253 58.592 124.082 59.1467 123.741 59.744C123.485 60.3413 123.186 60.8533 122.845 61.28C121.224 63.4133 119.261 65.6747 116.957 68.064C114.653 70.368 112.178 72.3307 109.533 73.952C106.973 75.5733 104.328 76.384 101.597 76.384ZM123.9 76.256C122.535 76.256 121.297 76 120.188 75.488C119.164 74.8907 118.652 73.6533 118.652 71.776C118.652 68.7893 119.42 65.8027 120.956 62.816C122.492 59.744 124.071 57.056 125.692 54.752C127.143 52.7893 128.764 50.9547 130.556 49.248C132.433 47.456 134.439 45.92 136.572 44.64C137.937 43.7867 139.772 42.8907 142.076 41.952C144.465 40.928 146.471 40.416 148.092 40.416C149.457 40.416 150.652 40.8 151.676 41.568C152.7 42.2507 153.212 43.5307 153.212 45.408C153.212 48.3093 152.444 51.296 150.908 54.368C149.457 57.3547 147.921 60 146.3 62.304C145.532 63.328 144.764 64.3093 143.996 65.248C143.228 66.1013 142.375 66.9973 141.436 67.936C144.593 67.936 147.495 67.04 150.14 65.248C152.785 63.3707 155.089 61.1093 157.052 58.464L157.308 58.208C157.564 58.208 157.692 58.464 157.692 58.976C157.692 59.5733 157.521 60.128 157.18 60.64C155.473 63.0293 153.34 65.1627 150.78 67.04C148.22 68.832 145.319 69.728 142.076 69.728C141.735 69.728 141.393 69.728 141.052 69.728C140.711 69.728 140.369 69.6853 140.028 69.6C135.249 74.0373 129.873 76.256 123.9 76.256ZM127.228 74.08C128.423 74.08 129.703 73.6533 131.068 72.8C132.519 71.9467 133.628 71.136 134.396 70.368C135.847 68.9173 137.169 67.3813 138.364 65.76C139.559 64.0533 140.668 62.3467 141.692 60.64C142.887 58.592 144.081 56.16 145.276 53.344C146.471 50.528 147.068 47.8827 147.068 45.408C147.068 43.4453 146.385 42.464 145.02 42.464C143.911 42.464 142.545 42.9333 140.924 43.872C139.388 44.8107 138.236 45.664 137.468 46.432C134.567 49.4187 132.135 52.6613 130.172 56.16C129.063 58.1227 127.868 60.4267 126.588 63.072C125.308 65.7173 124.668 68.1493 124.668 70.368C124.668 70.7093 124.668 71.0507 124.668 71.392C124.753 71.648 124.839 71.9467 124.924 72.288C125.265 73.4827 126.033 74.08 127.228 74.08ZM64.5265 146.544L65.1665 142.96H103.055C109.113 142.96 114.063 144.069 117.903 146.288C121.743 148.421 124.473 151.365 126.095 155.12C127.716 158.875 128.143 163.056 127.375 167.664L126.863 170.736C125.753 177.733 122.724 183.28 117.775 187.376C112.911 191.387 105.529 193.392 95.6305 193.392H81.5505L76.9425 219.248C76.4305 222.149 76.2598 223.899 76.4305 224.496C76.6012 225.008 77.3265 225.349 78.6065 225.52L88.0785 226.416L87.4385 230H49.8065L50.4465 226.416L57.6145 225.52C59.0652 225.349 59.9612 225.008 60.3025 224.496C60.6438 223.899 61.0705 222.149 61.5825 219.248L73.1025 153.712C73.6145 150.811 73.7852 149.104 73.6145 148.592C73.4438 147.995 72.7185 147.611 71.4385 147.44L64.5265 146.544ZM102.927 147.44H89.6145L82.3185 188.912H95.6305C99.3852 188.912 102.5 187.461 104.975 184.56C107.535 181.659 109.241 177.733 110.095 172.784L111.503 164.72C112.441 159.429 112.185 155.248 110.735 152.176C109.284 149.019 106.681 147.44 102.927 147.44ZM146.019 152.304C143.971 152.304 142.264 151.664 140.899 150.384C139.619 149.019 138.979 147.269 138.979 145.136C138.979 143.088 139.619 141.424 140.899 140.144C142.264 138.864 143.971 138.224 146.019 138.224C148.067 138.224 149.731 138.864 151.011 140.144C152.376 141.424 153.059 143.088 153.059 145.136C153.059 147.269 152.376 149.019 151.011 150.384C149.731 151.664 148.067 152.304 146.019 152.304ZM131.043 170.096V166.64H151.395V219.632C151.395 222.619 151.523 224.368 151.779 224.88C152.035 225.392 152.845 225.733 154.211 225.904L161.251 226.672V230H131.043V226.672L138.083 225.904C139.448 225.733 140.259 225.392 140.515 224.88C140.771 224.368 140.899 222.619 140.899 219.632V177.008C140.899 174.021 140.771 172.272 140.515 171.76C140.259 171.248 139.448 170.907 138.083 170.736L131.043 170.096ZM214.477 211.696H217.805V230H170.573V226.8L204.877 170.736H185.677C182.861 170.736 181.111 170.949 180.429 171.376C179.831 171.717 179.277 172.613 178.765 174.064L175.309 184.944H171.981V166.64H216.525V169.84L182.477 225.904H204.109C207.01 225.904 208.759 225.733 209.357 225.392C210.039 225.051 210.594 224.112 211.021 222.576L214.477 211.696ZM273.477 211.696H276.805V230H229.573V226.8L263.877 170.736H244.677C241.861 170.736 240.111 170.949 239.429 171.376C238.831 171.717 238.277 172.613 237.765 174.064L234.309 184.944H230.981V166.64H275.525V169.84L241.477 225.904H263.109C266.01 225.904 267.759 225.733 268.357 225.392C269.039 225.051 269.594 224.112 270.021 222.576L273.477 211.696ZM340.029 230.896C333.373 230.896 329.447 227.824 328.253 221.68C325.266 225.093 321.981 227.568 318.397 229.104C314.813 230.555 311.271 231.28 307.773 231.28C301.799 231.28 297.405 229.616 294.589 226.288C291.773 222.96 290.365 218.949 290.365 214.256C290.365 209.221 292.071 205.253 295.485 202.352C298.983 199.365 304.999 197.872 313.533 197.872H327.997V187.504C327.997 180.677 326.802 175.984 324.413 173.424C322.109 170.779 318.951 169.456 314.941 169.456C312.381 169.456 310.077 169.968 308.029 170.992C305.981 172.016 304.487 173.893 303.549 176.624C302.695 179.269 302.61 183.152 303.293 188.272L293.181 186.736C292.754 182.725 293.266 179.141 294.717 175.984C296.253 172.741 298.727 170.181 302.141 168.304C305.639 166.341 309.991 165.36 315.197 165.36C321.426 165.36 326.205 166.427 329.533 168.56C332.861 170.608 335.165 173.296 336.445 176.624C337.81 179.952 338.493 183.579 338.493 187.504V216.304C338.493 220.656 338.962 223.387 339.901 224.496C340.925 225.605 342.034 226.16 343.229 226.16C343.997 226.16 344.807 225.989 345.661 225.648C346.514 225.221 347.453 224.581 348.477 223.728L350.781 226.928C349.501 228.037 347.965 228.976 346.173 229.744C344.466 230.512 342.418 230.896 340.029 230.896ZM311.357 225.904C313.746 225.904 316.306 225.264 319.037 223.984C321.853 222.619 324.839 219.931 327.997 215.92V201.968H314.941C310.162 201.968 306.663 202.949 304.445 204.912C302.311 206.789 301.245 209.733 301.245 213.744C301.245 217.584 302.055 220.571 303.677 222.704C305.383 224.837 307.943 225.904 311.357 225.904Z" fill="url(#paint0_linear_247_55)"/>
<defs>
<linearGradient id="paint0_linear_247_55" x1="-311" y1="111.5" x2="497" y2="111.5" gradientUnits="userSpaceOnUse">
<stop offset="0.415" stop-color="#310606"/>
<stop offset="0.61" stop-color="#971313"/>
</linearGradient>
</defs>
</svg>
